<svg xmlns="http://www.w3.org/2000/svg" viewBox="0 0 464.26 482.82"><defs><style>.cls-1{fill:#e73c47;}</style></defs><g id="Layer_1" data-name="Layer 1"><polygon class="cls-1" points="315.69 371.79 278.55 371.79 278.55 408.93 278.55 445.68 278.55 446.07 278.55 482.82 315.69 482.82 352.83 482.82 352.83 446.07 352.83 445.68 352.83 408.93 352.83 371.79 315.69 371.79"/><polygon class="cls-1" points="427.12 297.51 389.98 297.51 389.98 334.65 389.98 371.79 389.98 371.79 389.98 408.93 389.98 445.68 389.98 446.07 389.98 482.82 427.12 482.82 464.26 482.82 464.26 446.07 464.26 445.68 464.26 408.93 464.26 371.79 464.26 371.79 464.26 334.65 464.26 297.51 427.12 297.51"/><path class="cls-1" d="M74,241.41A167.37,167.37,0,0,1,359.76,123.06l52.36-52.35A240.65,240.65,0,0,0,241.41,0C108.08,0,0,108.08,0,241.41S108.08,482.82,241.41,482.82v-74A167.37,167.37,0,0,1,74,241.41Z"/></g></svg>